<svg width="24" height="17" viewBox="0 0 24 17" fill="none" xmlns="http://www.w3.org/2000/svg">
<path d="M17.6551 16.932C21.3991 13.344 23.1671 10.068 23.1671 7C23.1671 3.204 21.1391 0.500002 18.2271 0.500002C15.6271 0.500002 13.5471 2.684 13.5471 5.284C13.5471 7.832 15.6271 9.964 18.1231 9.964C17.6551 11.628 16.5631 13.396 14.9511 14.852L17.6551 16.932ZM4.13509 16.932C7.87909 13.344 9.64709 10.068 9.64709 7C9.64709 3.204 7.61909 0.500002 4.70709 0.500002C2.10709 0.500002 0.0270933 2.684 0.0270933 5.284C0.0270933 7.832 2.10709 9.964 4.60309 9.964C4.13509 11.628 3.04309 13.396 1.43109 14.852L4.13509 16.932Z" fill="#EF283B"/>
</svg>
