<svg width="19" height="18" viewBox="0 0 19 18" fill="none" xmlns="http://www.w3.org/2000/svg">
<path d="M17.6429 0H1.3529C0.606473 0 0 0.582589 0 1.29777V16.7022C0 17.4174 0.606473 18 1.3529 18H17.6429C18.3893 18 19 17.4174 19 16.7022V1.29777C19 0.582589 18.3893 0 17.6429 0ZM5.74241 15.4286H2.92634V6.83839H5.74665V15.4286H5.74241ZM4.33437 5.66518C3.43103 5.66518 2.70156 4.97009 2.70156 4.1183C2.70156 3.26652 3.43103 2.57143 4.33437 2.57143C5.23348 2.57143 5.96719 3.26652 5.96719 4.1183C5.96719 4.97411 5.23772 5.66518 4.33437 5.66518ZM16.2984 15.4286H13.4824V11.25C13.4824 10.2536 13.4612 8.97188 12.0192 8.97188C10.5518 8.97188 10.327 10.0567 10.327 11.1777V15.4286H7.51094V6.83839H10.2125V8.01161H10.2507C10.6281 7.33661 11.5484 6.62545 12.9183 6.62545C15.7683 6.62545 16.2984 8.40536 16.2984 10.7196V15.4286Z" fill="black"/>
</svg>
