<svg width="24" height="17" viewBox="0 0 24 17" fill="none" xmlns="http://www.w3.org/2000/svg">
<path d="M6.34491 0.0679977C2.60091 3.656 0.832906 6.932 0.832906 10C0.832906 13.796 2.86091 16.5 5.77291 16.5C8.37291 16.5 10.4529 14.316 10.4529 11.716C10.4529 9.168 8.37291 7.036 5.87691 7.036C6.34491 5.372 7.43691 3.604 9.04891 2.148L6.34491 0.0679977ZM19.8649 0.0679977C16.1209 3.656 14.3529 6.932 14.3529 10C14.3529 13.796 16.3809 16.5 19.2929 16.5C21.8929 16.5 23.9729 14.316 23.9729 11.716C23.9729 9.168 21.8929 7.036 19.3969 7.036C19.8649 5.372 20.9569 3.604 22.5689 2.148L19.8649 0.0679977Z" fill="#EF283B"/>
</svg>
