<svg width="21" height="17" viewBox="0 0 21 17" fill="none" xmlns="http://www.w3.org/2000/svg">
<path fill-rule="evenodd" clip-rule="evenodd" d="M21 2.0125C20.2284 2.35385 19.3976 2.58469 18.5262 2.68783C19.4161 2.15739 20.099 1.31629 20.4207 0.31434C19.5874 0.805492 18.6667 1.1628 17.683 1.35435C16.8991 0.52062 15.7787 0 14.5387 0C12.1609 0 10.2319 1.92163 10.2319 4.29144C10.2319 4.62788 10.2689 4.9545 10.3428 5.26884C6.7621 5.08957 3.58813 3.38281 1.46188 0.783386C1.09086 1.41943 0.878845 2.15739 0.878845 2.94323C0.878845 4.43142 1.63938 5.74525 2.79556 6.51513C2.09051 6.49426 1.4249 6.29903 0.843103 5.97978V6.03257C0.843103 8.1126 2.3284 9.8476 4.30058 10.2405C3.93942 10.3412 3.55855 10.3915 3.16535 10.3915C2.88801 10.3915 2.61683 10.3658 2.35429 10.3154C2.9028 12.0197 4.49286 13.2611 6.37876 13.2943C4.90455 14.446 3.04578 15.1324 1.02799 15.1324C0.680398 15.1324 0.336503 15.1127 0 15.0735C1.90685 16.2891 4.17239 17 6.60433 17C14.53 17 18.8626 10.4615 18.8626 4.78996C18.8626 4.60332 18.8589 4.41668 18.8516 4.23373C19.6934 3.62838 20.4244 2.87324 21 2.0125Z" fill="black"/>
</svg>
